<svg xmlns="http://www.w3.org/2000/svg" version="1.1" xmlns:xlink="http://www.w3.org/1999/xlink" xmlns:svgjs="http://svgjs.com/svgjs" width="1920" height="1080" preserveAspectRatio="none" viewBox="0 0 1920 1080"><g mask="url(&quot;#SvgjsMask1078&quot;)" fill="none"><rect width="1920" height="1080" x="0" y="0" fill="rgba(15, 23, 42, 1)"></rect><path d="M19.72 138.49L63.02 163.49L63.02 213.49L19.72 238.49L-23.58 213.49L-23.58 163.49zM63.02 213.49L106.33 238.49L106.33 288.49L63.02 313.49L19.72 288.49L19.72 238.49zM63.02 363.49L106.33 388.49L106.33 438.49L63.02 463.49L19.72 438.49L19.72 388.49zM63.02 513.49L106.33 538.49L106.33 588.49L63.02 613.49L19.72 588.49L19.72 538.49zM19.72 888.49L63.02 913.49L63.02 963.49L19.72 988.49L-23.58 963.49L-23.58 913.49zM149.63 663.49L192.93 688.49L192.93 738.49L149.63 763.49L106.33 738.49L106.33 688.49zM149.63 813.49L192.93 838.49L192.93 888.49L149.63 913.49L106.33 888.49L106.33 838.49zM192.93 -11.51L236.23 13.49L236.23 63.49L192.93 88.49L149.63 63.49L149.63 13.49zM192.93 288.49L236.23 313.49L236.23 363.49L192.93 388.49L149.63 363.49L149.63 313.49zM192.93 438.49L236.23 463.49L236.23 513.49L192.93 538.49L149.63 513.49L149.63 463.49zM236.23 513.49L279.53 538.49L279.53 588.49L236.23 613.49L192.93 588.49L192.93 538.49zM192.93 588.49L236.23 613.49L236.23 663.49L192.93 688.49L149.63 663.49L149.63 613.49zM192.93 738.49L236.23 763.49L236.23 813.49L192.93 838.49L149.63 813.49L149.63 763.49zM192.93 888.49L236.23 913.49L236.23 963.49L192.93 988.49L149.63 963.49L149.63 913.49zM192.93 1038.49L236.23 1063.49L236.23 1113.49L192.93 1138.49L149.63 1113.49L149.63 1063.49zM279.53 288.49L322.84 313.49L322.84 363.49L279.53 388.49L236.23 363.49L236.23 313.49zM322.84 513.49L366.14 538.49L366.14 588.49L322.84 613.49L279.53 588.49L279.53 538.49zM279.53 588.49L322.84 613.49L322.84 663.49L279.53 688.49L236.23 663.49L236.23 613.49zM322.84 663.49L366.14 688.49L366.14 738.49L322.84 763.49L279.53 738.49L279.53 688.49zM409.44 63.49L452.75 88.49L452.75 138.49L409.44 163.49L366.14 138.49L366.14 88.49zM409.44 213.49L452.75 238.49L452.75 288.49L409.44 313.49L366.14 288.49L366.14 238.49zM366.14 288.49L409.44 313.49L409.44 363.49L366.14 388.49L322.84 363.49L322.84 313.49zM409.44 363.49L452.75 388.49L452.75 438.49L409.44 463.49L366.14 438.49L366.14 388.49zM366.14 438.49L409.44 463.49L409.44 513.49L366.14 538.49L322.84 513.49L322.84 463.49zM366.14 588.49L409.44 613.49L409.44 663.49L366.14 688.49L322.84 663.49L322.84 613.49zM409.44 663.49L452.75 688.49L452.75 738.49L409.44 763.49L366.14 738.49L366.14 688.49zM366.14 738.49L409.44 763.49L409.44 813.49L366.14 838.49L322.84 813.49L322.84 763.49zM366.14 1038.49L409.44 1063.49L409.44 1113.49L366.14 1138.49L322.84 1113.49L322.84 1063.49zM452.75 -11.51L496.05 13.49L496.05 63.49L452.75 88.49L409.44 63.49L409.44 13.49zM452.75 288.49L496.05 313.49L496.05 363.49L452.75 388.49L409.44 363.49L409.44 313.49zM496.05 363.49L539.35 388.49L539.35 438.49L496.05 463.49L452.75 438.49L452.75 388.49zM452.75 738.49L496.05 763.49L496.05 813.49L452.75 838.49L409.44 813.49L409.44 763.49zM496.05 813.49L539.35 838.49L539.35 888.49L496.05 913.49L452.75 888.49L452.75 838.49zM582.65 63.49L625.96 88.49L625.96 138.49L582.65 163.49L539.35 138.49L539.35 88.49zM539.35 138.49L582.65 163.49L582.65 213.49L539.35 238.49L496.05 213.49L496.05 163.49zM582.65 363.49L625.96 388.49L625.96 438.49L582.65 463.49L539.35 438.49L539.35 388.49zM582.65 513.49L625.96 538.49L625.96 588.49L582.65 613.49L539.35 588.49L539.35 538.49zM582.65 663.49L625.96 688.49L625.96 738.49L582.65 763.49L539.35 738.49L539.35 688.49zM539.35 888.49L582.65 913.49L582.65 963.49L539.35 988.49L496.05 963.49L496.05 913.49zM582.65 963.49L625.96 988.49L625.96 1038.49L582.65 1063.49L539.35 1038.49L539.35 988.49zM625.96 -11.51L669.26 13.49L669.26 63.49L625.96 88.49L582.65 63.49L582.65 13.49zM669.26 63.49L712.56 88.49L712.56 138.49L669.26 163.49L625.96 138.49L625.96 88.49zM625.96 138.49L669.26 163.49L669.26 213.49L625.96 238.49L582.65 213.49L582.65 163.49zM669.26 213.49L712.56 238.49L712.56 288.49L669.26 313.49L625.96 288.49L625.96 238.49zM625.96 288.49L669.26 313.49L669.26 363.49L625.96 388.49L582.65 363.49L582.65 313.49zM669.26 513.49L712.56 538.49L712.56 588.49L669.26 613.49L625.96 588.49L625.96 538.49zM669.26 813.49L712.56 838.49L712.56 888.49L669.26 913.49L625.96 888.49L625.96 838.49zM625.96 1038.49L669.26 1063.49L669.26 1113.49L625.96 1138.49L582.65 1113.49L582.65 1063.49zM712.56 588.49L755.86 613.49L755.86 663.49L712.56 688.49L669.26 663.49L669.26 613.49zM755.86 663.49L799.17 688.49L799.17 738.49L755.86 763.49L712.56 738.49L712.56 688.49zM712.56 738.49L755.86 763.49L755.86 813.49L712.56 838.49L669.26 813.49L669.26 763.49zM755.86 813.49L799.17 838.49L799.17 888.49L755.86 913.49L712.56 888.49L712.56 838.49zM712.56 1038.49L755.86 1063.49L755.86 1113.49L712.56 1138.49L669.26 1113.49L669.26 1063.49zM799.17 438.49L842.47 463.49L842.47 513.49L799.17 538.49L755.86 513.49L755.86 463.49zM842.47 513.49L885.77 538.49L885.77 588.49L842.47 613.49L799.17 588.49L799.17 538.49zM842.47 963.49L885.77 988.49L885.77 1038.49L842.47 1063.49L799.17 1038.49L799.17 988.49zM799.17 1038.49L842.47 1063.49L842.47 1113.49L799.17 1138.49L755.86 1113.49L755.86 1063.49zM885.77 -11.51L929.07 13.49L929.07 63.49L885.77 88.49L842.47 63.49L842.47 13.49zM929.07 63.49L972.38 88.49L972.38 138.49L929.07 163.49L885.77 138.49L885.77 88.49zM885.77 438.49L929.07 463.49L929.07 513.49L885.77 538.49L842.47 513.49L842.47 463.49zM885.77 588.49L929.07 613.49L929.07 663.49L885.77 688.49L842.47 663.49L842.47 613.49zM929.07 813.49L972.38 838.49L972.38 888.49L929.07 913.49L885.77 888.49L885.77 838.49zM885.77 888.49L929.07 913.49L929.07 963.49L885.77 988.49L842.47 963.49L842.47 913.49zM885.77 1038.49L929.07 1063.49L929.07 1113.49L885.77 1138.49L842.47 1113.49L842.47 1063.49zM1015.68 363.49L1058.98 388.49L1058.98 438.49L1015.68 463.49L972.38 438.49L972.38 388.49zM972.38 738.49L1015.68 763.49L1015.68 813.49L972.38 838.49L929.07 813.49L929.07 763.49zM972.38 888.49L1015.68 913.49L1015.68 963.49L972.38 988.49L929.07 963.49L929.07 913.49zM1102.28 63.49L1145.59 88.49L1145.59 138.49L1102.28 163.49L1058.98 138.49L1058.98 88.49zM1102.28 213.49L1145.59 238.49L1145.59 288.49L1102.28 313.49L1058.98 288.49L1058.98 238.49zM1058.98 438.49L1102.28 463.49L1102.28 513.49L1058.98 538.49L1015.68 513.49L1015.68 463.49zM1058.98 588.49L1102.28 613.49L1102.28 663.49L1058.98 688.49L1015.68 663.49L1015.68 613.49zM1102.28 663.49L1145.59 688.49L1145.59 738.49L1102.28 763.49L1058.98 738.49L1058.98 688.49zM1102.28 813.49L1145.59 838.49L1145.59 888.49L1102.28 913.49L1058.98 888.49L1058.98 838.49zM1102.28 963.49L1145.59 988.49L1145.59 1038.49L1102.28 1063.49L1058.98 1038.49L1058.98 988.49zM1145.59 -11.51L1188.89 13.49L1188.89 63.49L1145.59 88.49L1102.28 63.49L1102.28 13.49zM1188.89 213.49L1232.19 238.49L1232.19 288.49L1188.89 313.49L1145.59 288.49L1145.59 238.49zM1188.89 363.49L1232.19 388.49L1232.19 438.49L1188.89 463.49L1145.59 438.49L1145.59 388.49zM1145.59 888.49L1188.89 913.49L1188.89 963.49L1145.59 988.49L1102.28 963.49L1102.28 913.49zM1188.89 963.49L1232.19 988.49L1232.19 1038.49L1188.89 1063.49L1145.59 1038.49L1145.59 988.49zM1145.59 1038.49L1188.89 1063.49L1188.89 1113.49L1145.59 1138.49L1102.28 1113.49L1102.28 1063.49zM1232.19 -11.51L1275.49 13.49L1275.49 63.49L1232.19 88.49L1188.89 63.49L1188.89 13.49zM1232.19 288.49L1275.49 313.49L1275.49 363.49L1232.19 388.49L1188.89 363.49L1188.89 313.49zM1275.49 813.49L1318.8 838.49L1318.8 888.49L1275.49 913.49L1232.19 888.49L1232.19 838.49zM1318.8 -11.51L1362.1 13.49L1362.1 63.49L1318.8 88.49L1275.49 63.49L1275.49 13.49zM1318.8 138.49L1362.1 163.49L1362.1 213.49L1318.8 238.49L1275.49 213.49L1275.49 163.49zM1318.8 588.49L1362.1 613.49L1362.1 663.49L1318.8 688.49L1275.49 663.49L1275.49 613.49zM1318.8 888.49L1362.1 913.49L1362.1 963.49L1318.8 988.49L1275.49 963.49L1275.49 913.49zM1448.7 63.49L1492.01 88.49L1492.01 138.49L1448.7 163.49L1405.4 138.49L1405.4 88.49zM1405.4 138.49L1448.7 163.49L1448.7 213.49L1405.4 238.49L1362.1 213.49L1362.1 163.49zM1405.4 738.49L1448.7 763.49L1448.7 813.49L1405.4 838.49L1362.1 813.49L1362.1 763.49zM1448.7 813.49L1492.01 838.49L1492.01 888.49L1448.7 913.49L1405.4 888.49L1405.4 838.49zM1405.4 1038.49L1448.7 1063.49L1448.7 1113.49L1405.4 1138.49L1362.1 1113.49L1362.1 1063.49zM1492.01 288.49L1535.31 313.49L1535.31 363.49L1492.01 388.49L1448.7 363.49L1448.7 313.49zM1492.01 588.49L1535.31 613.49L1535.31 663.49L1492.01 688.49L1448.7 663.49L1448.7 613.49zM1492.01 738.49L1535.31 763.49L1535.31 813.49L1492.01 838.49L1448.7 813.49L1448.7 763.49zM1578.61 438.49L1621.91 463.49L1621.91 513.49L1578.61 538.49L1535.31 513.49L1535.31 463.49zM1621.91 513.49L1665.22 538.49L1665.22 588.49L1621.91 613.49L1578.61 588.49L1578.61 538.49zM1621.91 813.49L1665.22 838.49L1665.22 888.49L1621.91 913.49L1578.61 888.49L1578.61 838.49zM1578.61 888.49L1621.91 913.49L1621.91 963.49L1578.61 988.49L1535.31 963.49L1535.31 913.49zM1578.61 1038.49L1621.91 1063.49L1621.91 1113.49L1578.61 1138.49L1535.31 1113.49L1535.31 1063.49zM1665.22 -11.51L1708.52 13.49L1708.52 63.49L1665.22 88.49L1621.91 63.49L1621.91 13.49zM1708.52 63.49L1751.82 88.49L1751.82 138.49L1708.52 163.49L1665.22 138.49L1665.22 88.49zM1665.22 588.49L1708.52 613.49L1708.52 663.49L1665.22 688.49L1621.91 663.49L1621.91 613.49zM1708.52 663.49L1751.82 688.49L1751.82 738.49L1708.52 763.49L1665.22 738.49L1665.22 688.49zM1751.82 -11.51L1795.12 13.49L1795.12 63.49L1751.82 88.49L1708.52 63.49L1708.52 13.49zM1795.12 213.49L1838.43 238.49L1838.43 288.49L1795.12 313.49L1751.82 288.49L1751.82 238.49zM1881.73 363.49L1925.03 388.49L1925.03 438.49L1881.73 463.49L1838.43 438.49L1838.43 388.49zM1881.73 963.49L1925.03 988.49L1925.03 1038.49L1881.73 1063.49L1838.43 1038.49L1838.43 988.49zM1925.03 -11.51L1968.33 13.49L1968.33 63.49L1925.03 88.49L1881.73 63.49L1881.73 13.49zM1968.33 63.49L2011.64 88.49L2011.64 138.49L1968.33 163.49L1925.03 138.49L1925.03 88.49zM1968.33 813.49L2011.64 838.49L2011.64 888.49L1968.33 913.49L1925.03 888.49L1925.03 838.49z" stroke="url(#SvgjsLinearGradient1079)" stroke-width="2"></path></g><defs><mask id="SvgjsMask1078"><rect width="1920" height="1080" fill="#ffffff"></rect></mask><linearGradient x1="210.048" y1="-209.95200000000003" x2="1709.9520000000002" y2="1289.952" gradientUnits="userSpaceOnUse" id="SvgjsLinearGradient1079"><stop stop-color="#0e2a47" offset="0"></stop><stop stop-color="#00459e" offset="1"></stop></linearGradient></defs></svg>