<svg xmlns="http://www.w3.org/2000/svg" version="1.1" xmlns:xlink="http://www.w3.org/1999/xlink" xmlns:svgjs="http://svgjs.com/svgjs" width="1920" height="1080" preserveAspectRatio="none" viewBox="0 0 1920 1080"><g mask="url(&quot;#SvgjsMask1034&quot;)" fill="none"><rect width="1920" height="1080" x="0" y="0" fill="rgba(15, 23, 42, 1)"></rect><path d="M1569 316L863 1022" stroke-width="10" stroke="url(#SvgjsLinearGradient1035)" stroke-linecap="round" class="TopRight"></path><path d="M333 699L-365 1397" stroke-width="8" stroke="url(#SvgjsLinearGradient1035)" stroke-linecap="round" class="TopRight"></path><path d="M346 598L864 80" stroke-width="10" stroke="url(#SvgjsLinearGradient1036)" stroke-linecap="round" class="BottomLeft"></path><path d="M592 925L-44 1561" stroke-width="10" stroke="url(#SvgjsLinearGradient1036)" stroke-linecap="round" class="BottomLeft"></path><path d="M515 269L-62 846" stroke-width="10" stroke="url(#SvgjsLinearGradient1035)" stroke-linecap="round" class="TopRight"></path><path d="M1063 612L1561 114" stroke-width="10" stroke="url(#SvgjsLinearGradient1035)" stroke-linecap="round" class="TopRight"></path><path d="M421 142L853 -290" stroke-width="6" stroke="url(#SvgjsLinearGradient1035)" stroke-linecap="round" class="TopRight"></path><path d="M1250 410L622 1038" stroke-width="10" stroke="url(#SvgjsLinearGradient1035)" stroke-linecap="round" class="TopRight"></path><path d="M1561 793L1909 445" stroke-width="10" stroke="url(#SvgjsLinearGradient1036)" stroke-linecap="round" class="BottomLeft"></path><path d="M1067 454L1631 -110" stroke-width="10" stroke="url(#SvgjsLinearGradient1035)" stroke-linecap="round" class="TopRight"></path><path d="M1047 340L239 1148" stroke-width="6" stroke="url(#SvgjsLinearGradient1036)" stroke-linecap="round" class="BottomLeft"></path><path d="M561 846L35 1372" stroke-width="6" stroke="url(#SvgjsLinearGradient1035)" stroke-linecap="round" class="TopRight"></path><path d="M1406 1069L999 1476" stroke-width="6" stroke="url(#SvgjsLinearGradient1036)" stroke-linecap="round" class="BottomLeft"></path><path d="M47 156L-653 856" stroke-width="6" stroke="url(#SvgjsLinearGradient1036)" stroke-linecap="round" class="BottomLeft"></path><path d="M724 408L-21 1153" stroke-width="10" stroke="url(#SvgjsLinearGradient1035)" stroke-linecap="round" class="TopRight"></path><path d="M891 774L559 1106" stroke-width="6" stroke="url(#SvgjsLinearGradient1035)" stroke-linecap="round" class="TopRight"></path><path d="M480 501L1228 -247" stroke-width="8" stroke="url(#SvgjsLinearGradient1036)" stroke-linecap="round" class="BottomLeft"></path><path d="M1904 304L1263 945" stroke-width="8" stroke="url(#SvgjsLinearGradient1036)" stroke-linecap="round" class="BottomLeft"></path><path d="M745 354L1502 -403" stroke-width="6" stroke="url(#SvgjsLinearGradient1036)" stroke-linecap="round" class="BottomLeft"></path><path d="M1092 242L1561 -227" stroke-width="8" stroke="url(#SvgjsLinearGradient1036)" stroke-linecap="round" class="BottomLeft"></path><path d="M1266 564L762 1068" stroke-width="8" stroke="url(#SvgjsLinearGradient1036)" stroke-linecap="round" class="BottomLeft"></path><path d="M513 1018L65 1466" stroke-width="8" stroke="url(#SvgjsLinearGradient1035)" stroke-linecap="round" class="TopRight"></path><path d="M1676 689L1039 1326" stroke-width="8" stroke="url(#SvgjsLinearGradient1036)" stroke-linecap="round" class="BottomLeft"></path><path d="M985 927L1666 246" stroke-width="6" stroke="url(#SvgjsLinearGradient1035)" stroke-linecap="round" class="TopRight"></path><path d="M1051 927L1442 536" stroke-width="6" stroke="url(#SvgjsLinearGradient1036)" stroke-linecap="round" class="BottomLeft"></path><path d="M967 940L1594 313" stroke-width="8" stroke="url(#SvgjsLinearGradient1036)" stroke-linecap="round" class="BottomLeft"></path><path d="M327 491L-392 1210" stroke-width="6" stroke="url(#SvgjsLinearGradient1036)" stroke-linecap="round" class="BottomLeft"></path><path d="M124 163L482 -195" stroke-width="6" stroke="url(#SvgjsLinearGradient1036)" stroke-linecap="round" class="BottomLeft"></path><path d="M1536 223L2344 -585" stroke-width="10" stroke="url(#SvgjsLinearGradient1036)" stroke-linecap="round" class="BottomLeft"></path><path d="M119 400L690 -171" stroke-width="10" stroke="url(#SvgjsLinearGradient1035)" stroke-linecap="round" class="TopRight"></path><path d="M897 562L1192 267" stroke-width="10" stroke="url(#SvgjsLinearGradient1035)" stroke-linecap="round" class="TopRight"></path><path d="M1301 944L847 1398" stroke-width="8" stroke="url(#SvgjsLinearGradient1036)" stroke-linecap="round" class="BottomLeft"></path><path d="M1735 475L2178 32" stroke-width="10" stroke="url(#SvgjsLinearGradient1035)" stroke-linecap="round" class="TopRight"></path><path d="M1107 520L1739 -112" stroke-width="10" stroke="url(#SvgjsLinearGradient1036)" stroke-linecap="round" class="BottomLeft"></path><path d="M194 132L765 -439" stroke-width="8" stroke="url(#SvgjsLinearGradient1035)" stroke-linecap="round" class="TopRight"></path><path d="M1658 319L1345 632" stroke-width="6" stroke="url(#SvgjsLinearGradient1035)" stroke-linecap="round" class="TopRight"></path><path d="M298 759L876 181" stroke-width="10" stroke="url(#SvgjsLinearGradient1036)" stroke-linecap="round" class="BottomLeft"></path><path d="M1701 287L1403 585" stroke-width="8" stroke="url(#SvgjsLinearGradient1035)" stroke-linecap="round" class="TopRight"></path><path d="M287 444L-80 811" stroke-width="10" stroke="url(#SvgjsLinearGradient1036)" stroke-linecap="round" class="BottomLeft"></path><path d="M201 614L917 -102" stroke-width="8" stroke="url(#SvgjsLinearGradient1035)" stroke-linecap="round" class="TopRight"></path><path d="M829 1062L98 1793" stroke-width="10" stroke="url(#SvgjsLinearGradient1035)" stroke-linecap="round" class="TopRight"></path><path d="M1492 373L1768 97" stroke-width="8" stroke="url(#SvgjsLinearGradient1035)" stroke-linecap="round" class="TopRight"></path><path d="M158 164L-253 575" stroke-width="8" stroke="url(#SvgjsLinearGradient1035)" stroke-linecap="round" class="TopRight"></path><path d="M1295 418L691 1022" stroke-width="6" stroke="url(#SvgjsLinearGradient1035)" stroke-linecap="round" class="TopRight"></path><path d="M1565 995L1249 1311" stroke-width="8" stroke="url(#SvgjsLinearGradient1035)" stroke-linecap="round" class="TopRight"></path><path d="M1660 113L2335 -562" stroke-width="8" stroke="url(#SvgjsLinearGradient1036)" stroke-linecap="round" class="BottomLeft"></path><path d="M1525 674L2149 50" stroke-width="6" stroke="url(#SvgjsLinearGradient1036)" stroke-linecap="round" class="BottomLeft"></path><path d="M604 117L1050 -329" stroke-width="10" stroke="url(#SvgjsLinearGradient1036)" stroke-linecap="round" class="BottomLeft"></path><path d="M1557 642L1898 301" stroke-width="10" stroke="url(#SvgjsLinearGradient1035)" stroke-linecap="round" class="TopRight"></path><path d="M1098 853L692 1259" stroke-width="6" stroke="url(#SvgjsLinearGradient1035)" stroke-linecap="round" class="TopRight"></path><path d="M509 923L-176 1608" stroke-width="6" stroke="url(#SvgjsLinearGradient1035)" stroke-linecap="round" class="TopRight"></path><path d="M1089 567L643 1013" stroke-width="6" stroke="url(#SvgjsLinearGradient1036)" stroke-linecap="round" class="BottomLeft"></path><path d="M1312 136L1884 -436" stroke-width="6" stroke="url(#SvgjsLinearGradient1036)" stroke-linecap="round" class="BottomLeft"></path><path d="M405 402L-405 1212" stroke-width="10" stroke="url(#SvgjsLinearGradient1036)" stroke-linecap="round" class="BottomLeft"></path><path d="M1465 362L2042 -215" stroke-width="6" stroke="url(#SvgjsLinearGradient1035)" stroke-linecap="round" class="TopRight"></path><path d="M1356 31L736 651" stroke-width="8" stroke="url(#SvgjsLinearGradient1036)" stroke-linecap="round" class="BottomLeft"></path></g><defs><mask id="SvgjsMask1034"><rect width="1920" height="1080" fill="#ffffff"></rect></mask><linearGradient x1="0%" y1="100%" x2="100%" y2="0%" id="SvgjsLinearGradient1035"><stop stop-color="rgba(28, 83, 142, 0)" offset="0"></stop><stop stop-color="#1c538e" offset="1"></stop></linearGradient><linearGradient x1="100%" y1="0%" x2="0%" y2="100%" id="SvgjsLinearGradient1036"><stop stop-color="rgba(28, 83, 142, 0)" offset="0"></stop><stop stop-color="#1c538e" offset="1"></stop></linearGradient></defs></svg>